<svg width="601" height="600" viewBox="0 0 601 600" fill="none" xmlns="http://www.w3.org/2000/svg">
<rect x="0.75" width="600" height="600" fill="#F7F8F8"/>
<path d="M394.358 412.501L376.176 394.603H215.097C208.847 394.603 203.498 392.38 199.051 387.933C194.604 383.486 192.377 378.133 192.369 371.876V235.512C192.369 229.262 194.597 223.914 199.051 219.467C203.506 215.02 208.854 212.793 215.097 212.785H226.744V245.171L185.267 203.694C182.994 201.421 181.858 198.724 181.858 195.603C181.858 192.482 182.994 189.781 185.267 187.501C187.54 185.221 190.24 184.084 193.369 184.092C196.498 184.099 199.195 185.236 201.46 187.501L410.551 396.592C412.824 398.865 413.96 401.516 413.96 404.546C413.96 407.577 412.824 410.228 410.551 412.501C408.278 414.774 405.581 415.91 402.46 415.91C399.339 415.91 396.638 414.774 394.358 412.501ZM412.54 356.251C410.456 357.198 408.373 357.482 406.29 357.103C404.206 356.724 402.218 355.588 400.324 353.694L356.858 310.228C357.805 302.274 356.998 294.558 354.437 287.08C351.877 279.603 347.763 273.02 342.097 267.33C336.604 261.838 330.115 257.815 322.631 255.262C315.146 252.709 307.43 251.902 299.483 252.842L262.54 216.194C261.403 215.058 260.597 213.827 260.119 212.501C259.642 211.175 259.407 209.755 259.415 208.24C259.422 206.724 259.661 205.353 260.131 204.126C260.6 202.899 261.309 201.713 262.256 200.569L265.097 197.444C267.18 195.171 269.691 193.372 272.631 192.046C275.57 190.721 278.646 190.058 281.858 190.058H330.153C333.373 190.058 336.453 190.721 339.392 192.046C342.331 193.372 344.839 195.171 346.915 197.444L361.119 212.785H396.915C403.165 212.785 408.517 215.012 412.972 219.467C417.426 223.921 419.65 229.27 419.642 235.512V345.74C419.642 348.391 418.979 350.569 417.653 352.274C416.328 353.978 414.623 355.304 412.54 356.251ZM306.006 354.83C310.362 354.83 314.578 354.357 318.653 353.41C322.729 352.463 326.657 350.948 330.437 348.865L260.835 279.262C258.752 283.05 257.237 286.982 256.29 291.058C255.343 295.133 254.869 299.346 254.869 303.694C254.869 317.899 259.843 329.974 269.79 339.921C279.737 349.868 291.809 354.838 306.006 354.83ZM306.006 332.103C298.051 332.103 291.328 329.357 285.835 323.865C280.343 318.372 277.597 311.649 277.597 303.694C277.597 299.906 278.309 296.262 279.733 292.762C281.157 289.262 283.191 286.183 285.835 283.524L326.176 323.865C323.525 326.516 320.449 328.554 316.949 329.978C313.449 331.402 309.801 332.111 306.006 332.103Z" fill="#E4E7E8"/>
</svg>
